<svg width="190.000000" height="165.000000" viewBox="0 0 190 165" fill="none" xmlns="http://www.w3.org/2000/svg" xmlns:xlink="http://www.w3.org/1999/xlink">
	<desc>
			Created with Pixso.
	</desc>
	<defs/>
	<rect width="190.000000" height="165.000000" fill="#FFFFFF" fill-opacity="0"/>
	<circle cx="64.000000" cy="101.000000" r="64.000000" fill="#FF9900" fill-opacity="1.000000"/>
	<circle cx="64.000000" cy="101.000000" r="63.467743" stroke="#FF9900" stroke-opacity="1.000000" stroke-width="1.064516"/>
	<rect width="135.193542" height="135.193542" transform="translate(54.612793 0.000000)" fill="#FFFFFF" fill-opacity="0"/>
	<path d="M121.677 50.0322C112.271 50.0322 104.645 57.6578 104.645 67.0645C104.645 76.4711 112.271 84.0967 121.677 84.0967C131.084 84.0967 138.709 76.4711 138.709 67.0645C138.709 57.6578 131.084 50.0322 121.677 50.0322ZM102.516 67.0645C102.516 56.482 111.095 47.9032 121.677 47.9032C132.26 47.9032 140.839 56.482 140.839 67.0645C140.839 77.647 132.26 86.2258 121.677 86.2258C111.095 86.2258 102.516 77.647 102.516 67.0645Z" fill="#000000" fill-opacity="1.000000" fill-rule="evenodd"/>
	<path d="M122.209 2.13464C119.285 2.13464 116.479 3.29663 114.411 5.36493C112.343 7.43329 111.181 10.2385 111.181 13.1636L111.181 14.1918L111.181 14.196C111.172 16.3504 110.534 18.4552 109.344 20.2514C108.155 22.0476 106.466 23.4568 104.486 24.3055C104.353 24.3624 104.21 24.3918 104.065 24.3918L103.8 24.3918C101.837 25.2098 99.6772 25.4442 97.5811 25.0641C95.4092 24.6703 93.4053 23.635 91.8271 22.0916L91.8188 22.0833L91.4561 21.7204C90.4316 20.6949 89.2148 19.881 87.876 19.326C86.5371 18.771 85.1021 18.4853 83.6528 18.4853C82.2031 18.4853 80.7681 18.771 79.4292 19.326C78.0903 19.881 76.874 20.6945 75.8496 21.72L75.8491 21.7208C74.8232 22.7451 74.0098 23.9615 73.4551 25.3004C72.8999 26.6392 72.6143 28.0744 72.6143 29.5238C72.6143 30.9731 72.8999 32.4083 73.4551 33.7472C74.0098 35.0861 74.8232 36.3025 75.8491 37.3268L76.2207 37.6984C77.7642 39.2762 78.7993 41.2804 79.1929 43.4522C79.585 45.613 79.3237 47.8412 78.4434 49.8524C77.6758 51.9194 76.3076 53.7098 74.5137 54.9927C72.7109 56.2822 70.5615 56.9996 68.3457 57.0514L68.3208 57.0517L67.7764 57.0517C64.8511 57.0517 62.0459 58.2136 59.9775 60.282C57.9092 62.3503 56.7476 65.1556 56.7476 68.0806C56.7476 71.0057 57.9092 73.8109 59.9775 75.8793C62.0459 77.9476 64.8511 79.1096 67.7764 79.1096L68.8086 79.1096C70.9634 79.1182 73.0679 79.7565 74.8643 80.946C76.6587 82.1346 78.0669 83.8215 78.916 85.7994C79.8052 87.8173 80.0703 90.0553 79.6768 92.2252C79.2832 94.397 78.2476 96.4011 76.7041 97.9789L76.6963 97.9874L76.333 98.3502C75.3076 99.3745 74.4937 100.591 73.939 101.93C73.3838 103.269 73.0981 104.704 73.0981 106.154C73.0981 107.603 73.3838 109.038 73.939 110.377C74.4937 111.716 75.3071 112.932 76.3325 113.957L76.3335 113.957C77.3579 114.983 78.5742 115.796 79.9131 116.351C81.252 116.906 82.687 117.192 84.1367 117.192C85.5859 117.192 87.021 116.906 88.3599 116.351C89.6987 115.796 90.915 114.983 91.9395 113.957L92.311 113.586C93.8892 112.042 95.8931 111.007 98.0649 110.613C100.226 110.221 102.454 110.483 104.465 111.363C106.532 112.13 108.323 113.499 109.605 115.293C110.895 117.096 111.612 119.245 111.664 121.461L111.665 121.486L111.665 122.03C111.665 124.955 112.827 127.76 114.895 129.829C116.963 131.897 119.769 133.059 122.693 133.059C125.619 133.059 128.424 131.897 130.492 129.829C132.561 127.76 133.722 124.955 133.722 122.03L133.722 121.002L133.722 120.997C133.731 118.843 134.369 116.738 135.559 114.942C136.747 113.148 138.434 111.74 140.412 110.891C142.43 110.001 144.668 109.736 146.838 110.129C149.01 110.523 151.014 111.559 152.592 113.102L152.6 113.11L152.963 113.473C153.987 114.499 155.204 115.312 156.543 115.868C157.882 116.423 159.317 116.708 160.767 116.708C162.216 116.708 163.651 116.423 164.99 115.868C166.329 115.312 167.545 114.499 168.569 113.474L168.57 113.473C169.596 112.448 170.409 111.232 170.964 109.893C171.519 108.554 171.805 107.119 171.805 105.67C171.805 104.22 171.519 102.785 170.964 101.446C170.409 100.107 169.596 98.8911 168.57 97.8668L168.199 97.4951C166.655 95.9173 165.62 93.9132 165.226 91.7413C164.833 89.5712 165.098 87.3331 165.987 85.315C166.836 83.3373 168.244 81.6506 170.039 80.4622C171.835 79.2727 173.94 78.6343 176.094 78.6257L176.099 78.6257L176.643 78.6257C179.568 78.6257 182.373 77.4637 184.441 75.3954C186.51 73.3271 187.672 70.5219 187.672 67.5968C187.672 64.6717 186.51 61.8665 184.441 59.7982C182.373 57.7298 179.568 56.5678 176.643 56.5678L175.615 56.5678L175.61 56.5678C173.456 56.5592 171.351 55.9209 169.555 54.7313C167.759 53.5418 166.35 51.853 165.501 49.8728C165.444 49.74 165.415 49.5969 165.415 49.4524L165.415 49.1876C164.597 47.2242 164.362 45.0645 164.742 42.9683C165.136 40.7965 166.171 38.7925 167.715 37.2146L167.723 37.2062L168.086 36.8433C169.111 35.819 169.925 34.6022 170.48 33.2634C171.035 31.9244 171.321 30.4893 171.321 29.0399C171.321 27.5906 171.035 26.1554 170.48 24.8165C169.925 23.4776 169.112 22.2612 168.086 21.2369L168.085 21.2361C167.061 20.2107 165.845 19.3972 164.506 18.8422C163.167 18.2872 161.732 18.0015 160.283 18.0015C158.833 18.0015 157.398 18.2872 156.059 18.8422C154.72 19.3972 153.504 20.2107 152.479 21.2361L152.108 21.6077C150.53 23.1512 148.526 24.1865 146.354 24.5803C144.184 24.9738 141.946 24.7087 139.928 23.8194C137.95 22.9705 136.264 21.5622 135.075 19.7676C133.885 17.9714 133.247 15.8665 133.238 13.7122L133.238 13.7079L133.238 13.1636C133.238 10.2385 132.077 7.43329 130.008 5.36493C127.94 3.29663 125.135 2.13464 122.209 2.13464ZM112.901 3.85553C115.37 1.3869 118.718 0 122.209 0C125.701 0 129.049 1.3869 131.518 3.85553C133.986 6.32416 135.373 9.67236 135.373 13.1636L135.373 13.7037C135.373 13.7043 135.373 13.705 135.373 13.7056C135.38 15.443 135.896 17.1404 136.855 18.5889C137.814 20.038 139.177 21.1749 140.774 21.8596L140.785 21.8641C142.414 22.5831 144.221 22.7976 145.973 22.4799C147.724 22.1625 149.339 21.3287 150.611 20.0856C150.613 20.0844 150.614 20.083 150.615 20.0817L150.969 19.7275C152.192 18.5038 153.644 17.5326 155.242 16.8702C156.84 16.2078 158.553 15.8668 160.283 15.8668C162.013 15.8668 163.726 16.2078 165.323 16.8702C166.921 17.5325 168.373 18.5032 169.595 19.7267C170.819 20.9492 171.79 22.401 172.452 23.9991C173.115 25.5971 173.456 27.3101 173.456 29.0399C173.456 30.7698 173.115 32.4828 172.452 34.0808C171.79 35.6788 170.819 37.1306 169.595 38.3531L169.241 38.7073C169.239 38.7087 169.238 38.71 169.237 38.7114C167.994 39.9838 167.16 41.5989 166.843 43.3492C166.525 45.1013 166.739 46.9084 167.458 48.5376C167.518 48.6733 167.549 48.8201 167.549 48.9685L167.549 49.2268C168.241 50.7403 169.344 52.0312 170.733 52.9516C172.182 53.9109 173.879 54.4259 175.617 54.4332L176.643 54.4332C180.134 54.4332 183.482 55.8201 185.951 58.2887C188.419 60.7574 189.806 64.1056 189.806 67.5968C189.806 71.088 188.419 74.4362 185.951 76.9048C183.482 79.3735 180.134 80.7604 176.643 80.7604L176.103 80.7604C176.102 80.7604 176.102 80.7604 176.101 80.7604C174.363 80.7676 172.666 81.2827 171.217 82.2419C169.769 83.2017 168.631 84.5641 167.947 86.1616L167.942 86.1721C167.223 87.8013 167.009 89.6084 167.326 91.3605C167.644 93.1107 168.478 94.7258 169.72 95.998C169.722 95.9995 169.723 96.001 169.725 96.0024L170.079 96.3565C171.303 97.579 172.274 99.0311 172.936 100.629C173.599 102.227 173.939 103.94 173.939 105.67C173.939 107.4 173.599 109.113 172.936 110.711C172.274 112.308 171.303 113.76 170.079 114.983C168.857 116.206 167.405 117.177 165.807 117.839C164.209 118.502 162.496 118.843 160.767 118.843C159.037 118.843 157.324 118.502 155.726 117.839C154.128 117.177 152.676 116.206 151.454 114.983L151.099 114.628C151.098 114.627 151.096 114.625 151.095 114.624C149.822 113.381 148.208 112.547 146.457 112.23C144.705 111.912 142.898 112.127 141.269 112.846L141.258 112.85C139.661 113.535 138.298 114.672 137.338 116.121C136.379 117.569 135.864 119.267 135.857 121.004C135.857 121.005 135.857 121.005 135.857 121.006L135.857 122.03C135.857 125.521 134.47 128.869 132.001 131.338C129.533 133.807 126.185 135.194 122.693 135.194C119.202 135.194 115.854 133.807 113.385 131.338C110.917 128.869 109.53 125.521 109.53 122.03L109.53 121.498C109.486 119.715 108.907 117.986 107.869 116.534C106.829 115.08 105.375 113.972 103.697 113.355C103.686 113.35 103.674 113.346 103.663 113.342C103.653 113.338 103.644 113.334 103.634 113.329C102.005 112.61 100.198 112.396 98.4458 112.714C96.6958 113.031 95.0806 113.865 93.8081 115.108C93.8066 115.109 93.8052 115.11 93.8037 115.112L93.4497 115.466C92.2271 116.69 90.7754 117.661 89.1772 118.323C87.5796 118.986 85.8667 119.327 84.1367 119.327C82.4067 119.327 80.6938 118.986 79.0957 118.323C77.4976 117.661 76.0459 116.69 74.8232 115.466C73.5996 114.244 72.6294 112.792 71.9668 111.194C71.3047 109.596 70.9634 107.883 70.9634 106.154C70.9634 104.424 71.3047 102.711 71.9668 101.113C72.6294 99.5149 73.6001 98.0632 74.8237 96.8408L75.1782 96.4863C75.1797 96.4849 75.1812 96.4836 75.1821 96.4822C76.4253 95.2098 77.2593 93.5946 77.5767 91.8444C77.894 90.0922 77.6797 88.2851 76.9609 86.6559L76.9561 86.6455C76.2715 85.048 75.1348 83.6855 73.6855 82.7258C72.2368 81.7665 70.5396 81.2515 68.8022 81.2442C68.8018 81.2442 68.8008 81.2442 68.8003 81.2442L67.7764 81.2442C64.2852 81.2442 60.937 79.8573 58.4683 77.3887C55.9995 74.92 54.6128 71.5718 54.6128 68.0806C54.6128 64.5894 55.9995 61.2412 58.4683 58.7726C60.937 56.3039 64.2852 54.9171 67.7764 54.9171L68.3081 54.9171C70.0913 54.8729 71.8208 54.2944 73.272 53.2565C74.7266 52.2162 75.8345 50.7623 76.4517 49.084C76.4595 49.0629 76.4678 49.042 76.4771 49.0214C77.1958 47.3923 77.4106 45.5852 77.0928 43.833C76.7754 42.0828 75.9414 40.4675 74.6987 39.1952L74.3403 38.837C73.1162 37.6145 72.1455 36.1627 71.4829 34.5646C70.8208 32.9666 70.4795 31.2537 70.4795 29.5238C70.4795 27.7939 70.8208 26.0809 71.4829 24.4829C72.1455 22.8849 73.1162 21.4331 74.3403 20.2106C75.5625 18.9871 77.0142 18.0164 78.6118 17.3541C80.21 16.6917 81.9229 16.3507 83.6528 16.3507C85.3828 16.3507 87.0957 16.6917 88.6934 17.3541C90.2915 18.0165 91.7432 18.9872 92.9653 20.2109L93.3242 20.5696C94.5967 21.8126 96.2119 22.6464 97.9619 22.9637C99.7139 23.2815 101.521 23.067 103.15 22.348C103.286 22.2881 103.433 22.2571 103.582 22.2571L103.84 22.2571C105.353 21.5652 106.644 20.4626 107.564 19.0728C108.524 17.6242 109.039 15.9269 109.046 14.1895L109.046 13.1636C109.046 9.67236 110.433 6.32416 112.901 3.85553Z" fill="#000000" fill-opacity="1.000000" fill-rule="evenodd"/>
</svg>
