<svg width="190.000000" height="165.000000" viewBox="0 0 190 165" fill="none" xmlns="http://www.w3.org/2000/svg" xmlns:xlink="http://www.w3.org/1999/xlink">
	<desc>
			Created with Pixso.
	</desc>
	<defs>
		<clipPath id="clip406480_4613">
			<rect width="119.000000" height="132.000000" transform="translate(71.000000 0.000000)" fill="white" fill-opacity="0"/>
		</clipPath>
	</defs>
	<rect width="190.000000" height="165.000000" fill="#FFFFFF" fill-opacity="0"/>
	<circle cx="60.000000" cy="105.000000" r="60.000000" fill="#FF9900" fill-opacity="1.000000"/>
	<rect width="119.000000" height="132.000000" transform="translate(71.000000 0.000000)" fill="#FFFFFF" fill-opacity="0"/>
	<g clip-path="url(#clip406480_4613)">
		<path d="M101.13 15.4904C101.399 15.0217 101.996 14.861 102.462 15.1311L159.512 48.172C159.979 48.4421 160.139 49.0411 159.87 49.5096C159.601 49.9783 159.004 50.139 158.538 49.8689L101.488 16.828C101.021 16.5579 100.861 15.9589 101.13 15.4904Z" fill="#000000" fill-opacity="1.000000" fill-rule="evenodd"/>
		<path d="M123.502 1.87488C125.63 0.646606 128.043 0 130.5 0C132.957 0 135.37 0.646606 137.498 1.87488C137.499 1.87524 137.5 1.87561 137.5 1.87598L183 27.8812C185.126 29.109 186.892 30.8745 188.121 33.0005C189.35 35.1265 189.998 37.5381 190 39.9938L190 92.0063C189.998 94.4619 189.35 96.8735 188.121 98.9995C186.892 101.125 185.126 102.891 183 104.119L182.996 104.121L137.5 130.124C137.5 130.124 137.499 130.124 137.499 130.125C135.371 131.353 132.957 132 130.5 132C128.043 132 125.629 131.353 123.501 130.125C123.501 130.124 123.5 130.124 123.5 130.124L78.0039 104.121L78 104.119C75.874 102.891 74.1079 101.125 72.8794 98.9995C71.6504 96.8735 71.0024 94.4619 71 92.0063L71 39.9938C71.0024 37.5381 71.6504 35.1265 72.8794 33.0005C74.1079 30.8745 75.874 29.109 78 27.8812L78.0039 27.879L123.5 1.87598C123.5 1.87561 123.501 1.87524 123.502 1.87488ZM130.5 2.00037C128.394 2.00037 126.324 2.55493 124.5 3.6084L124.496 3.6106L79 29.6136C78.9995 29.614 78.9985 29.6145 78.998 29.6149C77.1763 30.6672 75.6636 32.1799 74.6108 34.0016C73.5576 35.8236 73.0024 37.8906 73 39.9952L73 92.0048C73.0024 94.1094 73.5576 96.1764 74.6108 97.9984C75.6636 99.8199 77.1763 101.333 78.9976 102.385C78.9985 102.385 78.999 102.386 79 102.386L124.5 128.392C126.324 129.445 128.394 130 130.5 130C132.606 130 134.676 129.445 136.5 128.392L136.504 128.389L182 102.386C182.001 102.386 182.001 102.385 182.002 102.385C183.824 101.333 185.336 99.8199 186.389 97.9984C187.442 96.1763 187.998 94.109 188 92.0043L188 39.9957C187.998 37.891 187.442 35.8237 186.389 34.0016C185.336 32.1799 183.824 30.6672 182.002 29.6149C182.001 29.6145 182 29.614 182 29.6136L136.504 3.6106L136.5 3.6084C134.676 2.55493 132.606 2.00037 130.5 2.00037Z" fill="#000000" fill-opacity="1.000000" fill-rule="evenodd"/>
		<path d="M73.1328 33.4875C73.4058 33.0209 74.0098 32.8613 74.4814 33.1313L130 64.8959L185.519 33.1313C185.99 32.8613 186.594 33.0209 186.867 33.4875C187.14 33.9543 186.979 34.5516 186.507 34.8215L130.494 66.8688C130.188 67.0437 129.812 67.0437 129.506 66.8688L73.4932 34.8215C73.021 34.5516 72.8599 33.9543 73.1328 33.4875Z" fill="#000000" fill-opacity="1.000000" fill-rule="evenodd"/>
		<path d="M130 65C130.552 65 131 65.4376 131 65.9775L131 130.022C131 130.562 130.552 131 130 131C129.448 131 129 130.562 129 130.022L129 65.9775C129 65.4376 129.448 65 130 65Z" fill="#000000" fill-opacity="1.000000" fill-rule="evenodd"/>
	</g>
</svg>
