<svg width="64.000000" height="49.000000" viewBox="0 0 64 49" fill="none" xmlns="http://www.w3.org/2000/svg" xmlns:xlink="http://www.w3.org/1999/xlink">
	<desc>
			Created with Pixso.
	</desc>
	<defs>
		<clipPath id="clip406480_4123">
			<rect width="43.000000" height="48.000000" transform="translate(21.000000 0.000000)" fill="white" fill-opacity="0"/>
		</clipPath>
	</defs>
	<rect width="64.000000" height="49.000000" fill="#FFFFFF" fill-opacity="0"/>
	<circle cx="21.500000" cy="27.500000" r="21.500000" fill="#FF9900" fill-opacity="1.000000"/>
	<rect width="43.000000" height="48.000000" transform="translate(21.000000 0.000000)" fill="#FFFFFF" fill-opacity="0"/>
	<g clip-path="url(#clip406480_4123)">
		<path d="M31.8889 5.58661C31.9863 5.4173 32.2017 5.35913 32.3704 5.45679L52.9875 17.3975C53.156 17.4952 53.2139 17.7116 53.1167 17.881C53.0195 18.0503 52.804 18.1084 52.6355 18.0107L32.0183 6.07007C31.8496 5.97241 31.7917 5.75598 31.8889 5.58661Z" fill="#000000" fill-opacity="1.000000" fill-rule="evenodd"/>
		<path d="M39.9739 0.666077C40.7427 0.222229 41.615 -0.0114746 42.5029 -0.0114746C43.3906 -0.0114746 44.2629 0.222229 45.0317 0.666077C45.032 0.666199 45.0322 0.666382 45.0325 0.666504L61.4758 10.0646C62.2444 10.5083 62.8826 11.1463 63.3264 11.9146C63.7705 12.6829 64.0046 13.5545 64.0056 14.442L64.0056 33.2389C64.0046 34.1263 63.7705 34.9979 63.3264 35.7662C62.8826 36.5345 62.2444 37.1725 61.4758 37.6162L61.4746 37.617L45.0325 47.0143C45.0325 47.0144 45.0322 47.0145 45.0322 47.0145C44.2632 47.4586 43.3909 47.6923 42.5029 47.6923C41.6147 47.6923 40.7424 47.4586 39.9734 47.0145C39.9734 47.0145 39.9731 47.0144 39.9731 47.0143L23.5312 37.617L23.5298 37.6162C22.7615 37.1725 22.123 36.5345 21.6792 35.7662C21.2351 34.9979 21.001 34.1263 21 33.2389L21 14.442C21.001 13.5545 21.2351 12.6829 21.6792 11.9146C22.123 11.1463 22.7615 10.5083 23.5298 10.0646L23.5312 10.0638L39.9731 0.666504C39.9734 0.666382 39.9736 0.666199 39.9739 0.666077ZM42.5029 0.711426C41.7417 0.711426 40.9937 0.911865 40.3345 1.2926L40.333 1.2934L23.8911 10.6907C23.8909 10.6908 23.8906 10.691 23.8904 10.6911C23.2322 11.0714 22.6853 11.6181 22.3049 12.2764C21.9243 12.9349 21.7236 13.6819 21.7229 14.4425L21.7229 33.2383C21.7236 33.9989 21.9243 34.7459 22.3049 35.4044C22.6853 36.0627 23.2322 36.6094 23.8904 36.9896C23.8906 36.9898 23.8909 36.99 23.8911 36.9901L40.3345 46.3882C40.9937 46.7689 41.7417 46.9694 42.5029 46.9694C43.2642 46.9694 44.012 46.7689 44.6711 46.3882L44.6726 46.3875L61.1145 36.9901C61.1147 36.99 61.115 36.9898 61.1155 36.9896C61.7737 36.6094 62.3203 36.0627 62.7007 35.4044C63.0813 34.7458 63.282 33.9988 63.283 33.2382L63.283 14.4427C63.282 13.682 63.0813 12.9349 62.7007 12.2764C62.3203 11.6181 61.7734 11.0714 61.1152 10.6911C61.115 10.691 61.1147 10.6908 61.1145 10.6907L44.6726 1.2934L44.6711 1.2926C44.012 0.911865 43.2642 0.711426 42.5029 0.711426Z" fill="#000000" fill-opacity="1.000000" fill-rule="evenodd"/>
		<path d="M21.7708 12.0905C21.8694 11.9219 22.0876 11.8642 22.2581 11.9618L42.322 23.4412L62.386 11.9618C62.5564 11.8642 62.7747 11.9219 62.8733 12.0905C62.9719 12.2592 62.9138 12.475 62.7432 12.5726L42.5007 24.1542C42.3901 24.2175 42.2539 24.2175 42.1433 24.1542L21.9009 12.5726C21.7302 12.475 21.6721 12.2592 21.7708 12.0905Z" fill="#000000" fill-opacity="1.000000" fill-rule="evenodd"/>
		<path d="M42.3223 23.479C42.522 23.479 42.6838 23.6371 42.6838 23.8323L42.6838 46.9777C42.6838 47.1727 42.522 47.3309 42.3223 47.3309C42.1228 47.3309 41.9609 47.1727 41.9609 46.9777L41.9609 23.8323C41.9609 23.6371 42.1228 23.479 42.3223 23.479Z" fill="#000000" fill-opacity="1.000000" fill-rule="evenodd"/>
	</g>
</svg>
