<svg width="64.000000" height="49.000000" viewBox="0 0 64 49" fill="none" xmlns="http://www.w3.org/2000/svg" xmlns:xlink="http://www.w3.org/1999/xlink">
	<desc>
			Created with Pixso.
	</desc>
	<defs>
		<clipPath id="clip406480_4130">
			<rect width="43.000000" height="43.000000" transform="translate(21.000000 0.000000)" fill="white" fill-opacity="0"/>
		</clipPath>
	</defs>
	<rect width="64.000000" height="49.000000" fill="#FFFFFF" fill-opacity="0"/>
	<circle cx="21.500000" cy="27.500000" r="21.500000" fill="#FF9900" fill-opacity="1.000000"/>
	<circle cx="21.500000" cy="27.500000" r="21.000000" stroke="#FF9900" stroke-opacity="1.000000" stroke-width="1.000000"/>
	<rect width="43.000000" height="43.000000" transform="translate(21.000000 0.000000)" fill="#FFFFFF" fill-opacity="0"/>
	<g clip-path="url(#clip406480_4130)">
		<path d="M42.4097 15.7002C39.417 15.7002 36.9907 18.1263 36.9907 21.119C36.9907 24.1118 39.417 26.5379 42.4097 26.5379C45.4023 26.5379 47.8286 24.1118 47.8286 21.119C47.8286 18.1263 45.4023 15.7002 42.4097 15.7002ZM36.3135 21.119C36.3135 17.7522 39.0427 15.0228 42.4097 15.0228C45.7766 15.0228 48.5059 17.7522 48.5059 21.119C48.5059 24.4859 45.7766 27.2152 42.4097 27.2152C39.0427 27.2152 36.3135 24.4859 36.3135 21.119Z" fill="#000000" fill-opacity="1.000000" fill-rule="evenodd"/>
		<path d="M42.5 0.678955C41.5696 0.678955 40.6775 1.04852 40.0195 1.70636C39.3616 2.36426 38.9922 3.25647 38.9922 4.18683L38.9922 4.51385L38.9922 4.5152C38.9893 5.20044 38.7864 5.86993 38.408 6.44122C38.0295 7.01251 37.4924 7.46069 36.8628 7.73065C36.8203 7.74878 36.7749 7.75812 36.729 7.75812L36.6448 7.75812C36.0203 8.01831 35.3333 8.09283 34.6665 7.97198C33.9758 7.84674 33.3384 7.5174 32.8367 7.02649L32.834 7.02386L32.7185 6.90845C32.3926 6.58228 32.0056 6.32343 31.5798 6.14691C31.1541 5.97034 30.6975 5.87952 30.2366 5.87952C29.7756 5.87952 29.3191 5.97034 28.8933 6.14691C28.4673 6.32343 28.0806 6.58215 27.7546 6.90833L27.7544 6.90857C27.4282 7.23438 27.1694 7.62122 26.9929 8.04712C26.8164 8.47296 26.7256 8.92944 26.7256 9.39038C26.7256 9.85138 26.8164 10.3079 26.9929 10.7337C27.1694 11.1595 27.4282 11.5464 27.7544 11.8723L27.8726 11.9904C28.3635 12.4923 28.6929 13.1298 28.8181 13.8205C28.9426 14.5078 28.8596 15.2165 28.5796 15.8562C28.3354 16.5136 27.9004 17.0831 27.3298 17.4911C26.7563 17.9013 26.0728 18.1294 25.3679 18.1459L25.3599 18.146L25.1868 18.146C24.2566 18.146 23.3643 18.5156 22.7063 19.1734C22.0486 19.8313 21.679 20.7235 21.679 21.6539C21.679 22.5843 22.0486 23.4765 22.7063 24.1343C23.3643 24.7922 24.2566 25.1618 25.1868 25.1618L25.5151 25.1618C26.2004 25.1645 26.8699 25.3676 27.4412 25.7459C28.012 26.1239 28.46 26.6605 28.73 27.2896C29.0127 27.9314 29.0972 28.6432 28.9719 29.3334C28.8467 30.0242 28.5173 30.6616 28.0266 31.1635L28.0239 31.1661L27.9084 31.2815C27.5823 31.6073 27.3235 31.9943 27.147 32.4202C26.9705 32.846 26.8794 33.3025 26.8794 33.7635C26.8794 34.2245 26.9705 34.6809 27.147 35.1068C27.3235 35.5327 27.5823 35.9195 27.9082 36.2453L27.9087 36.2456C28.2344 36.5717 28.6213 36.8305 29.0471 37.007C29.4729 37.1835 29.9294 37.2744 30.3904 37.2744C30.8513 37.2744 31.3079 37.1835 31.7336 37.007C32.1597 36.8305 32.5464 36.5717 32.8723 36.2456L32.9905 36.1274C33.4922 35.6365 34.1296 35.3072 34.8206 35.1819C35.5078 35.0573 36.2166 35.1404 36.8562 35.4204C37.5137 35.6645 38.083 36.0997 38.4912 36.6703C38.9014 37.2437 39.1294 37.9272 39.146 38.6321L39.146 38.64L39.146 38.8132C39.146 39.7435 39.5156 40.6357 40.1733 41.2936C40.8313 41.9515 41.7236 42.321 42.6538 42.321C43.5842 42.321 44.4766 41.9515 45.1343 41.2936C45.7922 40.6357 46.1619 39.7435 46.1619 38.8132L46.1619 38.4861L46.1619 38.4848C46.1646 37.7996 46.3677 37.1301 46.7458 36.5588C47.1238 35.988 47.6604 35.5401 48.2893 35.2701C48.9312 34.9872 49.6431 34.9029 50.3335 35.028C51.0242 35.1533 51.6616 35.4826 52.1633 35.9735L52.166 35.9761L52.2815 36.0916C52.6074 36.4177 52.9944 36.6766 53.4202 36.8531C53.8459 37.0297 54.3025 37.1205 54.7634 37.1205C55.2244 37.1205 55.6809 37.0297 56.1067 36.8531C56.5327 36.6766 56.9194 36.4178 57.2454 36.0917L57.2456 36.0914C57.5718 35.7656 57.8306 35.3788 58.0071 34.9529C58.1836 34.527 58.2744 34.0706 58.2744 33.6096C58.2744 33.1486 58.1836 32.6921 58.0071 32.2663C57.8306 31.8404 57.5718 31.4536 57.2456 31.1277L57.1274 31.0096C56.6365 30.5077 56.3071 29.8703 56.1819 29.1795C56.0569 28.4893 56.1411 27.7774 56.4241 27.1355C56.6941 26.5065 57.1418 25.97 57.7126 25.592C58.2839 25.2137 58.9534 25.0106 59.6387 25.0079L59.6401 25.0079L59.8132 25.0079C60.7434 25.0079 61.6357 24.6383 62.2937 23.9805C62.9514 23.3226 63.321 22.4304 63.321 21.5C63.321 20.5696 62.9514 19.6774 62.2937 19.0195C61.6357 18.3617 60.7434 17.9921 59.8132 17.9921L59.4861 17.9921L59.4849 17.9921C58.7996 17.9894 58.1301 17.7863 57.5588 17.408C56.9875 17.0296 56.5393 16.4925 56.2693 15.8627C56.2512 15.8204 56.2419 15.7749 56.2419 15.7289L56.2419 15.6447C55.9817 15.0203 55.9072 14.3333 56.0281 13.6666C56.1533 12.9758 56.4827 12.3384 56.9734 11.8365L56.9761 11.8339L57.0916 11.7185C57.4177 11.3927 57.6765 11.0057 57.853 10.5798C58.0295 10.154 58.1206 9.69751 58.1206 9.23651C58.1206 8.77551 58.0295 8.31903 57.853 7.89319C57.6765 7.46735 57.4177 7.08044 57.0918 6.7547L57.0913 6.75439C56.7656 6.42828 56.3787 6.16949 55.9529 5.99298C55.5271 5.81647 55.0706 5.72559 54.6096 5.72559C54.1487 5.72559 53.6921 5.81647 53.2664 5.99298C52.8403 6.16949 52.4536 6.42828 52.1277 6.75439L52.0095 6.87262C51.5078 7.36353 50.8704 7.69281 50.1794 7.81805C49.4893 7.94324 48.7776 7.85889 48.1357 7.57605C47.5066 7.30603 46.97 6.85815 46.592 6.28729C46.2136 5.716 46.0107 5.04657 46.0078 4.36133L46.0078 4.35999L46.0078 4.18683C46.0078 3.25647 45.6384 2.36426 44.9805 1.70636C44.3225 1.04852 43.4304 0.678955 42.5 0.678955ZM39.5396 1.22632C40.3247 0.441101 41.3896 0 42.5 0C43.6104 0 44.6753 0.441101 45.4604 1.22632C46.2458 2.01147 46.6868 3.07642 46.6868 4.18683L46.6868 4.35864C46.6868 4.35883 46.6868 4.35907 46.6868 4.35925C46.6892 4.91187 46.853 5.45172 47.1582 5.91241C47.4634 6.37335 47.8967 6.73492 48.4048 6.9527L48.4082 6.95416C48.9263 7.18286 49.501 7.25104 50.0583 7.15002C50.615 7.04907 51.1289 6.78387 51.5334 6.38849C51.5339 6.38806 51.5344 6.38763 51.5347 6.38727L51.6475 6.2746C52.0361 5.88538 52.498 5.57648 53.0063 5.36578C53.5146 5.15509 54.0593 5.04663 54.6096 5.04663C55.1599 5.04663 55.7046 5.15509 56.2129 5.36578C56.7209 5.57642 57.1826 5.88519 57.5715 6.27429C57.9607 6.66315 58.2695 7.12494 58.4802 7.63318C58.6909 8.14148 58.7996 8.68628 58.7996 9.23651C58.7996 9.78674 58.6909 10.3315 58.4802 10.8398C58.2695 11.3481 57.9607 11.8099 57.5715 12.1987L57.4587 12.3113C57.4585 12.3118 57.458 12.3122 57.4575 12.3127C57.0623 12.7173 56.7971 13.2311 56.696 13.7877C56.595 14.345 56.6633 14.9198 56.8918 15.438C56.9109 15.4811 56.9209 15.5278 56.9209 15.5751L56.9209 15.6572C57.1409 16.1386 57.4917 16.5492 57.9336 16.8419C58.3943 17.147 58.9343 17.3108 59.4868 17.3132L59.8132 17.3132C60.9236 17.3132 61.9885 17.7543 62.7737 18.5395C63.5588 19.3246 64 20.3896 64 21.5C64 22.6104 63.5588 23.6754 62.7737 24.4605C61.9885 25.2457 60.9236 25.6868 59.8132 25.6868L59.6414 25.6868C59.6411 25.6868 59.6409 25.6868 59.6406 25.6868C59.0881 25.6892 58.5483 25.853 58.0876 26.1581C57.6267 26.4633 57.2651 26.8967 57.0474 27.4048L57.0459 27.4081C56.8171 27.9263 56.749 28.5011 56.8501 29.0583C56.9509 29.615 57.2161 30.1287 57.6113 30.5334C57.6118 30.5338 57.6123 30.5343 57.6128 30.5348L57.7253 30.6474C58.1147 31.0362 58.4236 31.4981 58.6343 32.0063C58.845 32.5146 58.9534 33.0594 58.9534 33.6096C58.9534 34.1598 58.845 34.7046 58.6343 35.2129C58.4236 35.7211 58.1147 36.1828 57.7256 36.5717C57.3367 36.9609 56.875 37.2696 56.3667 37.4803C55.8586 37.691 55.3137 37.7995 54.7634 37.7995C54.2134 37.7995 53.6685 37.691 53.1602 37.4803C52.6519 37.2696 52.1902 36.9609 51.8015 36.5717L51.6887 36.4589C51.6882 36.4584 51.6877 36.4579 51.6873 36.4575C51.2827 36.0622 50.7688 35.797 50.2122 35.6961C49.655 35.595 49.0801 35.6633 48.562 35.8919L48.5586 35.8934C48.0505 36.1112 47.6172 36.4727 47.312 36.9337C47.0068 37.3944 46.843 37.9343 46.8408 38.4868C46.8408 38.4871 46.8408 38.4873 46.8408 38.4875L46.8408 38.8132C46.8408 39.9236 46.3997 40.9885 45.6145 41.7737C44.8293 42.5589 43.7644 43 42.6538 43C41.5435 43 40.4785 42.5589 39.6934 41.7737C38.9082 40.9885 38.467 39.9236 38.467 38.8132L38.467 38.6441C38.4531 38.0768 38.269 37.5268 37.939 37.0652C37.6079 36.6026 37.1455 36.2502 36.6118 36.0539C36.6082 36.0526 36.6045 36.0511 36.6011 36.0497C36.5979 36.0485 36.595 36.0472 36.5918 36.0458C36.0737 35.8171 35.499 35.7489 34.9417 35.85C34.385 35.9509 33.8713 36.2161 33.4666 36.6115C33.4661 36.6119 33.4656 36.6123 33.4653 36.6128L33.3525 36.7254C32.9639 37.1147 32.502 37.4235 31.9937 37.6342C31.4854 37.8449 30.9407 37.9534 30.3904 37.9534C29.8401 37.9534 29.2954 37.8449 28.7871 37.6342C28.2788 37.4235 27.8171 37.1147 27.4282 36.7254C27.0391 36.3366 26.7302 35.8749 26.5198 35.3668C26.3091 34.8585 26.2004 34.3137 26.2004 33.7635C26.2004 33.2133 26.3091 32.6685 26.5198 32.1602C26.7305 31.6519 27.0391 31.1902 27.4285 30.8014L27.5413 30.6887C27.5415 30.6882 27.542 30.6878 27.5425 30.6874C27.9377 30.2827 28.2029 29.769 28.304 29.2122C28.405 28.655 28.3367 28.0802 28.1082 27.562L28.1067 27.5587C27.8889 27.0506 27.5273 26.6172 27.0664 26.312C26.6057 26.0069 26.0657 25.843 25.5132 25.8407C25.5129 25.8407 25.5127 25.8407 25.5125 25.8407L25.1868 25.8407C24.0764 25.8407 23.0115 25.3996 22.2263 24.6144C21.4412 23.8293 21 22.7643 21 21.6539C21 20.5435 21.4412 19.4785 22.2263 18.6934C23.0115 17.9082 24.0764 17.467 25.1868 17.467L25.356 17.467C25.9231 17.453 26.4731 17.269 26.9348 16.9389C27.3975 16.608 27.7498 16.1456 27.946 15.6118C27.9485 15.605 27.9512 15.5984 27.9541 15.5919C28.1829 15.0737 28.251 14.499 28.1499 13.9417C28.0491 13.3849 27.7839 12.8712 27.3884 12.4665L27.2747 12.3526C26.8853 11.9637 26.5764 11.502 26.3657 10.9937C26.155 10.4855 26.0466 9.94061 26.0466 9.39038C26.0466 8.84021 26.155 8.29535 26.3657 7.78711C26.5764 7.27881 26.8853 6.81708 27.2747 6.42822C27.6633 6.03906 28.125 5.73035 28.6333 5.51971C29.1414 5.30896 29.6863 5.20056 30.2366 5.20056C30.7866 5.20056 31.3315 5.30896 31.8398 5.51971C32.3481 5.73035 32.8098 6.03912 33.1985 6.42834L33.3127 6.54242C33.7173 6.93774 34.231 7.203 34.7878 7.30389C35.345 7.40497 35.9199 7.33673 36.438 7.10803C36.4812 7.08899 36.5278 7.07916 36.575 7.07916L36.6572 7.07916C37.1387 6.85907 37.5491 6.50836 37.8418 6.06635C38.147 5.60559 38.3108 5.06573 38.3132 4.51312L38.3132 4.18683C38.3132 3.07642 38.7542 2.01147 39.5396 1.22632Z" fill="#000000" fill-opacity="1.000000" fill-rule="evenodd"/>
	</g>
</svg>
