<svg width="13.235352" height="25.000000" viewBox="0 0 13.2354 25" fill="none" xmlns="http://www.w3.org/2000/svg" xmlns:xlink="http://www.w3.org/1999/xlink">
	<desc>
			Created with Pixso.
	</desc>
	<defs/>
	<rect id="Frame 18" width="13.000000" height="25.000000" fill="#FFFFFF" fill-opacity="0"/>
	<path id="Vector" d="M5.77441 8.42896L2.99512 14.8313L0.448242 14.8313L0.448242 15.3875L2.70801 15.3875C2.70801 15.3875 0.771484 19.6914 0.448242 20.4985C0.125977 21.3057 1.09375 21.6821 1.09375 21.6821L0 25L0.161133 25L4.46582 15.3875L6.20508 15.3875L6.20508 16.1047C6.18457 16.1709 6.23047 16.2935 6.52832 16.3284L6.52832 16.3379C6.55957 16.3379 6.58984 16.3372 6.61719 16.3357C6.64551 16.3372 6.67578 16.3379 6.70703 16.3379L6.70703 16.3284C7.00488 16.2935 7.05078 16.1709 7.03027 16.1047L7.03027 15.3875L8.76953 15.3875L13.0742 25L13.2354 25L12.1416 21.6821C12.1416 21.6821 13.1094 21.3057 12.7871 20.4985C12.4639 19.6914 10.5273 15.3875 10.5273 15.3875L12.7871 15.3875L12.7871 14.8313L10.2402 14.8313L7.46094 8.42896L5.77441 8.42896ZM6.61719 10.449L4.73438 14.8313L6.20508 14.8313L6.20508 14.0063C6.20508 13.8372 6.44238 13.8003 6.61719 13.8037C6.79297 13.8003 7.03027 13.8372 7.03027 14.0063L7.03027 14.8313L8.50098 14.8313L6.61719 10.449Z" fill="#000000" fill-opacity="1.000000" fill-rule="evenodd"/>
	<path id="Vector" d="M7.17383 0L6.09766 0L6.09766 2.70337C4.73047 2.95605 3.69434 4.15479 3.69434 5.59546C3.69434 7.21973 5.01074 8.53662 6.63574 8.53662C8.25977 8.53662 9.57715 7.21973 9.57715 5.59546C9.57715 4.15479 8.54102 2.95605 7.17383 2.70337L7.17383 0ZM8.53613 5.59546C8.53613 6.64526 7.68555 7.49634 6.63574 7.49634C5.58594 7.49634 4.73438 6.64526 4.73438 5.59546C4.73438 4.54541 5.58594 3.69434 6.63574 3.69434C7.68555 3.69434 8.53613 4.54541 8.53613 5.59546Z" fill="#000000" fill-opacity="1.000000" fill-rule="evenodd"/>
</svg>
