<svg width="225.280762" height="72.000000" viewBox="0 0 225.281 72" fill="none" xmlns="http://www.w3.org/2000/svg" xmlns:xlink="http://www.w3.org/1999/xlink">
	<desc>
			Created with Pixso.
	</desc>
	<defs/>
	<rect width="225.000000" height="72.000000" transform="translate(0.280762 0.000000)" fill="#FFFFFF" fill-opacity="0"/>
	<path d="M69.8193 36.2905C68.7188 36.9226 67.3833 37.4219 65.814 37.7888C64.2441 38.1558 62.6133 38.3391 60.9214 38.3391C58.6382 38.3391 56.6919 38.064 55.0815 37.5137Q52.6963 36.688 51.4731 35.2205C50.6782 34.2419 50.2808 33.1106 50.2808 31.8264Q50.2808 30.7017 50.6909 29.7546Q50.8945 29.2856 51.1982 28.8604Q51.3096 28.7046 51.4312 28.5574Q52.312 27.491 53.7358 26.873Q52.8359 26.4119 52.2354 25.6987L52.2354 25.6987Q51.9995 25.4185 51.8096 25.0996Q51.5801 24.6846 51.4331 24.2422L51.4326 24.2422Q51.1675 23.4463 51.1675 22.5615Q51.1675 21.8247 51.3574 21.1409Q51.625 20.1785 52.2681 19.3206Q53.3994 17.8528 55.6929 16.9661Q57.9863 16.0793 61.3496 16.0793Q63.0327 16.0793 64.6768 16.3323L64.6772 16.3323Q65.0938 16.3965 65.5078 16.4768Q67.5566 16.8743 69.1162 17.5471L67.4648 22.0725Q65.605 21.2524 63.6665 20.9688Q62.6416 20.8188 61.5942 20.8188Q59.4233 20.8188 58.353 21.3997Q57.6479 21.7622 57.4077 22.3237Q57.2827 22.6147 57.2827 22.9592Q57.2827 23.5505 57.5591 23.9512Q58.1401 24.7937 59.9429 24.7937L65.9971 24.7937L65.9971 29.4109L59.5454 29.4109Q57.9863 29.4109 57.1909 29.9307Q56.833 30.1511 56.6362 30.4709Q56.396 30.8608 56.396 31.3982Q56.396 31.7161 56.5044 31.9907Q56.751 32.6155 57.5581 33.0188C58.3325 33.4062 59.5352 33.5999 61.166 33.5999C62.3281 33.5999 63.5205 33.447 64.7437 33.1411C65.9868 32.8149 67.0674 32.3767 67.9849 31.8264L69.8193 36.2905ZM170.963 21.3386L170.963 34.884C170.963 37.9622 170.127 40.2656 168.456 41.7944C166.784 43.3435 164.379 44.1182 161.24 44.1182C159.609 44.1182 158.08 43.9348 156.653 43.5679C155.226 43.2009 154.014 42.6606 153.015 41.9473L155.125 37.8806C155.797 38.4309 156.643 38.8591 157.662 39.1648C158.702 39.491 159.721 39.6541 160.72 39.6541C162.249 39.6541 163.37 39.3176 164.083 38.645C164.797 37.9724 165.154 36.9734 165.154 35.6484L165.154 35.0981C164.032 36.4026 162.392 37.0549 160.231 37.0549C158.763 37.0549 157.408 36.7288 156.164 36.0767C154.92 35.4038 153.932 34.4661 153.198 33.2634Q153.051 33.0188 152.924 32.7644Q152.097 31.1108 152.097 29.0439Q152.097 27.0295 152.903 25.4182Q153.039 25.146 153.198 24.8855Q153.808 23.8699 154.651 23.1167Q155.332 22.5093 156.164 22.0725C157.408 21.3997 158.763 21.0635 160.231 21.0635Q162.925 21.0635 164.525 22.3862Q165.032 22.8052 165.429 23.3567L165.429 21.3386L170.963 21.3386ZM85.4033 29.2273C87.2988 29.8594 88.2466 31.1638 88.2466 33.1411C88.2466 34.6292 87.666 35.8013 86.5039 36.6575C85.3418 37.4932 83.6299 37.9111 81.3672 37.9111L72.041 37.9111L72.041 21.3386L80.939 21.3386C83.0996 21.3386 84.7715 21.7156 85.9536 22.47C87.1562 23.2241 87.7578 24.2842 87.7578 25.6499Q87.7578 26.52 87.4321 27.2437Q87.3115 27.5117 87.146 27.7598C86.7383 28.3711 86.1572 28.8604 85.4033 29.2273ZM98.9478 32.0098L96.9912 32.0098L96.9912 37.9111L91.1816 37.9111L91.1816 21.3386L96.9912 21.3386L96.9912 27.4539L99.0703 27.4539L103.137 21.3386L109.283 21.3386L103.718 29.2886L109.65 37.9111L102.801 37.9111L98.9478 32.0098ZM128.454 21.3386L128.454 37.9111L122.645 37.9111L122.645 25.9556L118.456 25.9556L118.333 28.4934C118.252 30.6543 118.038 32.438 117.691 33.8445C117.345 35.251 116.774 36.3518 115.979 37.1467Q115.815 37.3059 115.636 37.4434Q114.501 38.3086 112.708 38.3086C111.994 38.3086 111.056 38.1763 109.894 37.9111L110.139 33.1719C110.506 33.2124 110.75 33.2329 110.873 33.2329C111.504 33.2329 111.983 33.0291 112.31 32.6213C112.636 32.2136 112.86 31.6736 112.982 31.0007C113.105 30.3076 113.187 29.3904 113.227 28.2488L113.472 21.3386L128.454 21.3386ZM149.42 21.3386L149.42 37.9111L143.886 37.9111L143.886 36.1682C143.274 36.8206 142.541 37.3201 141.685 37.6665Q141.519 37.7354 141.35 37.7949Q140.241 38.1863 138.994 38.1863C136.833 38.1863 135.11 37.5544 133.826 36.2905Q131.931 34.3948 131.931 30.6033L131.931 21.3386L137.74 21.3386L137.74 29.6555C137.74 32.0405 138.667 33.2329 140.522 33.2329C141.44 33.2329 142.184 32.917 142.755 32.2849C143.325 31.6328 143.611 30.644 143.611 29.3191L143.611 21.3386L149.42 21.3386ZM77.2393 28.0044L80.4189 28.0044C81.7646 28.0044 82.437 27.5049 82.437 26.5061C82.437 25.5479 81.7646 25.0688 80.4189 25.0688L77.2393 25.0688L77.2393 28.0044ZM161.606 32.438C162.646 32.438 163.502 32.1221 164.175 31.49C164.868 30.8582 165.215 30.0427 165.215 29.0439C165.215 28.0452 164.878 27.2397 164.206 26.6284C163.533 25.9963 162.667 25.6804 161.606 25.6804C160.547 25.6804 159.67 25.9963 158.977 26.6284C158.304 27.2397 157.968 28.0452 157.968 29.0439C157.968 30.0427 158.314 30.8582 159.008 31.49C159.701 32.1221 160.567 32.438 161.606 32.438ZM80.8472 34.1501C82.2539 34.1501 82.957 33.6406 82.957 32.6213Q82.957 32.0745 82.6948 31.7231Q82.2241 31.0925 80.9082 31.0925L77.2393 31.0925L77.2393 34.1501L80.8472 34.1501ZM59.7065 46.0098L59.7065 55.9885L56.9126 55.9885L56.9126 48.248L53.1206 48.248L53.1206 55.9885L50.3408 55.9885L50.3408 46.0098L59.7065 46.0098ZM65.8169 48.1338C66.6631 48.1338 67.3994 48.2954 68.0269 48.6187C68.6538 48.9417 69.1338 49.4075 69.4663 50.0156C69.8086 50.6143 69.9795 51.3176 69.9795 52.1255C69.9795 52.9238 69.8228 53.627 69.5093 54.2351C69.1958 54.834 68.7539 55.2996 68.1836 55.6323Q68.1743 55.6375 68.1655 55.6423Q67.3164 56.1169 66.2021 56.1169C65.3184 56.1169 64.6245 55.8462 64.1206 55.3044L64.1206 58.7542L61.4121 58.7542L61.4121 52.1538Q61.4121 51.063 61.8618 50.2087L61.8628 50.2068Q61.9062 50.1243 61.9541 50.0442C62.3149 49.4358 62.8281 48.9656 63.4937 48.6328C64.1587 48.3003 64.9331 48.1338 65.8169 48.1338ZM75.0947 56.1169C74.2681 56.1169 73.522 55.9458 72.8569 55.6038C72.1914 55.2617 71.6689 54.7864 71.2886 54.1782C70.918 53.5701 70.7329 52.8809 70.7329 52.1111C70.7329 51.3508 70.918 50.6665 71.2886 50.0583C71.6689 49.4502 72.187 48.9797 72.8428 48.6472C73.5078 48.3049 74.2588 48.1338 75.0947 48.1338C75.9312 48.1338 76.6821 48.3049 77.3472 48.6472C78.0127 48.9797 78.5303 49.4502 78.9009 50.0583C79.272 50.6572 79.457 51.3413 79.457 52.1111Q79.457 52.9895 79.1353 53.7278L79.1353 53.7283Q79.0342 53.9602 78.9009 54.1782C78.5303 54.7864 78.0127 55.2617 77.3472 55.6038C76.6821 55.9458 75.9312 56.1169 75.0947 56.1169ZM84.8188 54.0498C85.1895 54.0498 85.5078 53.9976 85.7739 53.8931C86.0493 53.7886 86.3252 53.6174 86.6006 53.3799L88.0117 54.8625C87.2803 55.6987 86.187 56.1169 84.7329 56.1169C83.8301 56.1169 83.0366 55.9458 82.3525 55.6038C81.668 55.2617 81.1362 54.7864 80.7559 54.1782C80.3853 53.5701 80.1997 52.8809 80.1997 52.1111C80.1997 51.3508 80.3853 50.6714 80.7559 50.0728C81.1265 49.4644 81.6348 48.9893 82.2812 48.6472C82.937 48.3049 83.6685 48.1338 84.4766 48.1338Q85.4458 48.1338 86.2671 48.4824Q86.4004 48.5388 86.5293 48.6042C87.1567 48.9084 87.6553 49.3599 88.0259 49.9585C88.397 50.5479 88.582 51.251 88.582 52.0684L83.0654 53.1233C83.3599 53.741 83.9443 54.0498 84.8188 54.0498ZM109.446 48.1338C110.396 48.1338 111.152 48.4189 111.713 48.9893C112.283 49.5596 112.568 50.4194 112.568 51.5696L112.568 55.9885L109.859 55.9885L109.859 52.0115C109.859 51.4697 109.755 51.0706 109.546 50.814C109.346 50.5574 109.061 50.429 108.69 50.429C108.282 50.429 107.954 50.5715 107.707 50.8567C107.46 51.1418 107.336 51.5742 107.336 52.1538L107.336 55.9885L104.628 55.9885L104.628 52.0115C104.628 50.9565 104.238 50.429 103.459 50.429C103.041 50.429 102.708 50.5715 102.461 50.8567C102.214 51.1418 102.09 51.5742 102.09 52.1538L102.09 55.9885L99.3818 55.9885L99.3818 48.2622L101.962 48.2622L101.962 49.0747C102.247 48.7612 102.584 48.5283 102.974 48.3762C103.374 48.2146 103.806 48.1338 104.271 48.1338C104.813 48.1338 105.298 48.2336 105.726 48.4333C106.153 48.6328 106.5 48.937 106.766 49.3457C107.07 48.9561 107.455 48.6565 107.921 48.4475C108.387 48.2385 108.895 48.1338 109.446 48.1338ZM141.033 54.0498C141.403 54.0498 141.722 53.9976 141.988 53.8931C142.264 53.7886 142.539 53.6174 142.814 53.3799L144.226 54.8625C143.494 55.6987 142.401 56.1169 140.947 56.1169C140.044 56.1169 139.251 55.9458 138.566 55.6038C137.882 55.2617 137.35 54.7864 136.97 54.1782C136.599 53.5701 136.414 52.8809 136.414 52.1111C136.414 51.3508 136.599 50.6714 136.97 50.0728C137.34 49.4644 137.849 48.9893 138.495 48.6472C139.151 48.3049 139.883 48.1338 140.69 48.1338C141.441 48.1338 142.125 48.2908 142.743 48.6042C143.371 48.9084 143.87 49.3599 144.24 49.9585C144.611 50.5479 144.796 51.251 144.796 52.0684L139.279 53.1233C139.574 53.741 140.158 54.0498 141.033 54.0498ZM154.114 56.1169C153.258 56.1169 152.493 55.9458 151.818 55.6038C151.144 55.2617 150.616 54.7864 150.236 54.1782C149.866 53.5701 149.68 52.8809 149.68 52.1111C149.68 51.3413 149.866 50.6572 150.236 50.0583C150.616 49.4502 151.144 48.9797 151.818 48.6472C152.493 48.3049 153.258 48.1338 154.114 48.1338C154.988 48.1338 155.744 48.324 156.38 48.7041C157.017 49.0747 157.468 49.5928 157.734 50.2581L155.639 51.3271C155.288 50.6333 154.774 50.2864 154.1 50.2864Q153.663 50.2864 153.314 50.4609Q153.082 50.5774 152.888 50.7712C152.574 51.0942 152.417 51.541 152.417 52.1111C152.417 52.6909 152.574 53.147 152.888 53.4797C153.211 53.8027 153.615 53.9644 154.1 53.9644C154.774 53.9644 155.288 53.6174 155.639 52.9238L157.734 53.9929C157.468 54.6582 157.017 55.1809 156.38 55.561C155.744 55.9316 154.988 56.1169 154.114 56.1169ZM172.518 56.1169C171.662 56.1169 170.897 55.9458 170.223 55.6038C169.548 55.2617 169.021 54.7864 168.64 54.1782C168.27 53.5701 168.084 52.8809 168.084 52.1111C168.084 51.3413 168.27 50.6572 168.64 50.0583C169.021 49.4502 169.548 48.9797 170.223 48.6472C170.897 48.3049 171.662 48.1338 172.518 48.1338C173.392 48.1338 174.147 48.324 174.784 48.7041C175.421 49.0747 175.873 49.5928 176.139 50.2581L174.043 51.3271C173.691 50.6333 173.178 50.2864 172.503 50.2864Q172.067 50.2864 171.718 50.4609Q171.485 50.5774 171.292 50.7712C170.978 51.0942 170.821 51.541 170.821 52.1111C170.821 52.6909 170.978 53.147 171.292 53.4797C171.615 53.8027 172.019 53.9644 172.503 53.9644C173.178 53.9644 173.691 53.6174 174.043 52.9238L176.139 53.9929C175.873 54.6582 175.421 55.1809 174.784 55.561C174.147 55.9316 173.392 56.1169 172.518 56.1169ZM187.335 48.1338C188.286 48.1338 189.042 48.4189 189.602 48.9893C190.172 49.5596 190.458 50.4194 190.458 51.5696L190.458 55.9885L187.749 55.9885L187.749 52.0115C187.749 51.4697 187.645 51.0706 187.436 50.814C187.236 50.5574 186.951 50.429 186.58 50.429C186.171 50.429 185.844 50.5715 185.597 50.8567C185.35 51.1418 185.226 51.5742 185.226 52.1538L185.226 55.9885L182.517 55.9885L182.517 52.0115C182.517 50.9565 182.127 50.429 181.348 50.429C180.93 50.429 180.598 50.5715 180.351 50.8567C180.104 51.1418 179.98 51.5742 179.98 52.1538L179.98 55.9885L177.271 55.9885L177.271 48.2622L179.852 48.2622L179.852 49.0747C180.137 48.7612 180.474 48.5283 180.864 48.3762C181.263 48.2146 181.695 48.1338 182.161 48.1338C182.703 48.1338 183.188 48.2336 183.615 48.4333C184.042 48.6328 184.39 48.937 184.656 49.3457C184.96 48.9561 185.345 48.6565 185.811 48.4475C186.276 48.2385 186.785 48.1338 187.335 48.1338ZM196.189 54.0498C196.56 54.0498 196.878 53.9976 197.144 53.8931C197.419 53.7886 197.695 53.6174 197.971 53.3799L199.382 54.8625C198.65 55.6987 197.557 56.1169 196.103 56.1169C195.2 56.1169 194.407 55.9458 193.723 55.6038C193.039 55.2617 192.506 54.7864 192.126 54.1782Q191.993 53.96 191.892 53.7278Q191.57 52.9897 191.57 52.1111C191.57 51.3508 191.755 50.6714 192.126 50.0728C192.497 49.4644 193.005 48.9893 193.651 48.6472C194.307 48.3049 195.039 48.1338 195.847 48.1338C196.598 48.1338 197.282 48.2908 197.899 48.6042C198.527 48.9084 199.025 49.3599 199.396 49.9585C199.767 50.5479 199.952 51.251 199.952 52.0684L194.436 53.1233C194.73 53.741 195.314 54.0498 196.189 54.0498ZM93.4946 53.2373L92.582 53.2373L92.582 55.9885L89.8735 55.9885L89.8735 48.2622L92.582 48.2622L92.582 51.1133L93.5513 51.1133L95.4473 48.2622L98.313 48.2622L95.7183 51.9685L98.4839 55.9885L95.2905 55.9885L93.4946 53.2373ZM114.208 48.2622L116.902 48.2622L116.902 51.1274L119.682 51.1274L119.682 48.2622L122.391 48.2622L122.391 55.9885L119.682 55.9885L119.682 53.28L116.902 53.28L116.902 55.9885L114.208 55.9885L114.208 48.2622ZM127.896 56.2168C125.339 56.2168 124.061 55.1191 124.061 52.9238L124.061 48.2622L126.755 48.2622L126.755 50.7141C126.955 50.5811 127.221 50.4717 127.553 50.3862C127.896 50.3008 128.285 50.2581 128.722 50.2581C129.672 50.2581 130.418 50.5002 130.96 50.9851C131.502 51.4602 131.773 52.1682 131.773 53.1091C131.773 54.126 131.421 54.9004 130.718 55.4326C130.024 55.9553 129.083 56.2168 127.896 56.2168ZM132.414 48.2622L135.123 48.2622L135.123 55.9885L132.414 55.9885L132.414 48.2622ZM166.822 48.2622L166.822 55.9885L164.242 55.9885L164.242 55.176C163.957 55.4802 163.614 55.7131 163.215 55.8745C162.826 56.0361 162.408 56.1169 161.961 56.1169C160.954 56.1169 160.15 55.8223 159.552 55.2332C158.962 54.6438 158.668 53.76 158.668 52.5815L158.668 48.2622L161.376 48.2622L161.376 52.1396C161.376 53.2517 161.809 53.8076 162.674 53.8076C163.101 53.8076 163.448 53.6602 163.714 53.3657C163.98 53.0615 164.113 52.6006 164.113 51.9829L164.113 48.2622L166.822 48.2622ZM208.742 55.9885L208.742 51.9258L206.761 55.3044L205.606 55.3044L203.682 51.8689L203.682 55.9885L201.244 55.9885L201.244 48.2622L204.095 48.2622L206.248 52.2964L208.614 48.2622L211.166 48.2622L211.18 55.9885L208.742 55.9885ZM216.685 56.2168C214.128 56.2168 212.851 55.1191 212.851 52.9238L212.851 48.2622L215.545 48.2622L215.545 50.7141Q215.844 50.5146 216.343 50.3862C216.685 50.3008 217.075 50.2581 217.512 50.2581C218.462 50.2581 219.208 50.5002 219.75 50.9851C220.292 51.4602 220.562 52.1682 220.562 53.1091C220.562 54.126 220.211 54.9004 219.508 55.4326C218.814 55.9553 217.873 56.2168 216.685 56.2168ZM221.204 48.2622L223.913 48.2622L223.913 55.9885L221.204 55.9885L221.204 48.2622ZM84.4907 50.0583C84.0249 50.0583 83.645 50.2058 83.3501 50.5002C83.0557 50.7854 82.8896 51.1987 82.8516 51.7405L85.9878 51.1274C85.8926 50.8044 85.7119 50.5479 85.4458 50.3577C85.1797 50.1582 84.8613 50.0583 84.4907 50.0583ZM140.705 50.0583C140.239 50.0583 139.859 50.2058 139.564 50.5002C139.27 50.7854 139.104 51.1987 139.065 51.7405L142.202 51.1274C142.106 50.8044 141.926 50.5479 141.66 50.3577C141.394 50.1582 141.076 50.0583 140.705 50.0583ZM195.861 50.0583C195.395 50.0583 195.015 50.2058 194.721 50.5002C194.426 50.7854 194.26 51.1987 194.222 51.7405L197.358 51.1274C197.263 50.8044 197.082 50.5479 196.816 50.3577C196.55 50.1582 196.231 50.0583 195.861 50.0583ZM65.689 53.9644C66.1733 53.9644 66.563 53.7981 66.8579 53.4653C67.1616 53.1233 67.314 52.6765 67.314 52.1255C67.314 51.5742 67.1616 51.1323 66.8579 50.7996C66.563 50.4575 66.1733 50.2864 65.689 50.2864C65.2041 50.2864 64.8145 50.4575 64.52 50.7996Q64.4736 50.8518 64.4321 50.9077Q64.0781 51.3853 64.0781 52.1255C64.0781 52.686 64.2207 53.1328 64.5054 53.4653C64.8003 53.7981 65.1948 53.9644 65.689 53.9644ZM75.0947 53.9644C75.5703 53.9644 75.96 53.8027 76.2637 53.4797C76.5679 53.147 76.7202 52.6909 76.7202 52.1111C76.7202 51.541 76.5679 51.0942 76.2637 50.7712C75.96 50.448 75.5703 50.2864 75.0947 50.2864C74.6196 50.2864 74.23 50.448 73.9258 50.7712C73.6221 51.0942 73.4697 51.541 73.4697 52.1111C73.4697 52.6909 73.6221 53.147 73.9258 53.4797C74.23 53.8027 74.6196 53.9644 75.0947 53.9644ZM127.896 54.3635C128.266 54.3635 128.546 54.2542 128.736 54.0356C128.926 53.8171 129.021 53.5271 129.021 53.166C129.021 52.8145 128.926 52.5388 128.736 52.3394C128.546 52.1396 128.271 52.0398 127.91 52.0398C127.653 52.0398 127.425 52.0874 127.225 52.1824C127.026 52.2776 126.869 52.4058 126.755 52.5674L126.755 53.166C126.755 53.5366 126.85 53.8313 127.04 54.0498C127.23 54.259 127.515 54.3635 127.896 54.3635ZM216.685 54.3635C217.056 54.3635 217.336 54.2542 217.526 54.0356C217.716 53.8171 217.812 53.5271 217.812 53.166C217.812 52.8145 217.716 52.5388 217.526 52.3394C217.336 52.1396 217.061 52.0398 216.699 52.0398C216.443 52.0398 216.215 52.0874 216.015 52.1824C215.815 52.2776 215.659 52.4058 215.545 52.5674L215.545 53.166C215.545 53.5366 215.64 53.8313 215.83 54.0498C216.02 54.259 216.305 54.3635 216.685 54.3635Z" fill="#000000" fill-opacity="1.000000" fill-rule="evenodd"/>
	<rect width="38.117649" height="72.000000" fill="#FFFFFF" fill-opacity="0"/>
	<path d="M16.6313 24.2754L8.62549 42.7144L1.29102 42.7144L1.29102 44.3157L7.79932 44.3157C7.79932 44.3157 2.2207 56.7114 1.29102 59.0359C0.361328 61.3601 3.15088 62.4446 3.15088 62.4446L0 72L0.464844 72L12.8608 44.3157L17.8711 44.3157L17.8711 46.3816C17.812 46.5723 17.9434 46.9253 18.8008 47.0256L18.8008 47.053C18.8921 47.053 18.978 47.0508 19.0586 47.0469C19.1396 47.0508 19.2256 47.053 19.3169 47.053L19.3169 47.0256C20.1743 46.9253 20.3057 46.5723 20.2466 46.3816L20.2466 44.3157L25.2568 44.3157L37.6528 72L38.1177 72L34.9668 62.4446C34.9668 62.4446 37.7559 61.3601 36.8262 59.0359C35.8965 56.7114 30.3184 44.3157 30.3184 44.3157L36.8262 44.3157L36.8262 42.7144L29.4922 42.7144L21.4863 24.2754L16.6313 24.2754ZM19.0586 30.093L13.6357 42.7144L17.8711 42.7144L17.8711 40.3386C17.8711 39.8513 18.5552 39.7451 19.0586 39.7546C19.5625 39.7451 20.2466 39.8513 20.2466 40.3386L20.2466 42.7144L24.4819 42.7144L19.0586 30.093Z" fill="#FF9900" fill-opacity="1.000000" fill-rule="evenodd"/>
	<path d="M20.6602 0L17.561 0L17.561 7.78564C13.623 8.51367 10.6401 11.9658 10.6401 16.1147C10.6401 20.793 14.4326 24.5854 19.1108 24.5854C23.7891 24.5854 27.5815 20.793 27.5815 16.1147C27.5815 11.9658 24.5986 8.51367 20.6602 7.78564L20.6602 0ZM24.5854 16.1147C24.5854 19.1384 22.1343 21.5896 19.1108 21.5896C16.0869 21.5896 13.6357 19.1384 13.6357 16.1147C13.6357 13.0911 16.0869 10.6399 19.1108 10.6399C22.1343 10.6399 24.5854 13.0911 24.5854 16.1147Z" fill="#000000" fill-opacity="1.000000" fill-rule="evenodd"/>
</svg>
